<?xml version="1.0" standalone="no"?>
<!DOCTYPE svg PUBLIC "-//W3C//DTD SVG 20010904//EN"
 "http://www.w3.org/TR/2001/REC-SVG-20010904/DTD/svg10.dtd">
<svg version="1.0" xmlns="http://www.w3.org/2000/svg"
 width="1024.000000pt" height="1024.000000pt" viewBox="0 0 1024.000000 1024.000000"
 preserveAspectRatio="xMidYMid meet">

<g transform="translate(0.000000,1024.000000) scale(0.100000,-0.100000)"
fill="#000000" stroke="none">
<path d="M6436 9640 c-64 -19 -55 0 -190 -420 -52 -162 -125 -387 -161 -500
-36 -113 -69 -226 -72 -251 -5 -44 -4 -47 28 -67 19 -11 45 -32 58 -46 24 -26
25 -26 198 -26 161 0 173 1 173 18 0 11 14 47 31 81 23 47 47 75 99 117 37 30
71 62 74 70 15 40 0 107 -74 329 -44 132 -80 250 -80 262 0 14 20 38 57 70 31
26 64 66 74 88 46 101 0 218 -105 266 -45 20 -66 22 -110 9z"/>
<path d="M6200 9583 c-43 -16 -54 -82 -18 -107 32 -22 61 -20 86 7 25 26 28
54 9 79 -15 19 -54 30 -77 21z"/>
<path d="M6142 9410 c-26 -11 -45 -54 -37 -81 4 -11 20 -26 37 -35 29 -15 32
-15 57 4 43 32 41 90 -4 110 -14 7 -27 12 -28 11 -1 0 -12 -4 -25 -9z"/>
<path d="M3985 9238 c-22 -5 -70 -7 -107 -3 -84 8 -88 1 -88 -124 0 -80 -2
-91 -18 -91 -9 0 -22 10 -27 23 -12 27 -56 34 -79 12 -9 -10 -16 -33 -16 -56
0 -36 4 -41 32 -54 30 -12 35 -11 61 11 47 40 48 37 51 -93 1 -36 -30 -38 -60
-3 -19 22 -25 23 -48 12 -33 -15 -46 -48 -34 -85 14 -40 50 -45 89 -13 17 14
35 26 40 26 5 0 9 -36 9 -80 0 -87 -13 -103 -44 -55 -18 27 -63 34 -84 13 -21
-21 -15 -85 10 -102 30 -21 45 -20 65 4 10 11 26 20 37 20 18 0 19 -6 13 -90
l-7 -91 38 -49 37 -49 66 0 c36 -1 106 -4 155 -7 l90 -7 42 57 42 56 -6 95
c-6 87 -5 95 11 95 10 0 28 -11 41 -25 13 -14 29 -25 37 -25 46 0 73 74 38
109 -31 31 -67 27 -86 -9 -10 -19 -20 -27 -30 -24 -12 5 -15 24 -15 85 0 89
13 101 56 53 18 -19 30 -24 47 -19 68 21 61 107 -10 121 -21 4 -33 2 -33 -4 0
-15 -29 -42 -46 -42 -11 0 -14 17 -14 75 0 68 2 75 20 75 11 0 25 -9 32 -20
26 -41 84 -18 94 37 6 31 3 39 -16 55 -31 25 -57 23 -76 -7 -9 -14 -25 -25
-35 -25 -17 0 -19 9 -19 98 0 53 -4 103 -9 110 -6 11 -24 12 -73 7 -35 -4 -80
-3 -99 2 -20 6 -50 6 -74 1z"/>
<path d="M6074 9232 c-37 -24 -36 -91 1 -106 34 -12 74 -6 85 13 14 26 13 74
-2 89 -13 13 -67 16 -84 4z"/>
<path d="M6045 9072 c-34 -7 -55 -33 -55 -69 0 -28 5 -36 34 -50 32 -15 37
-15 60 1 60 39 29 133 -39 118z"/>
<path d="M5962 8883 c-12 -10 -24 -30 -27 -44 -5 -21 -1 -31 21 -48 32 -25 52
-26 82 -5 46 32 18 114 -39 114 -9 0 -26 -8 -37 -17z"/>
<path d="M4831 8724 c-136 -13 -332 -41 -357 -51 -11 -4 -14 -29 -14 -99 l0
-93 -35 -28 c-28 -22 -35 -35 -35 -62 0 -27 -9 -42 -42 -74 -37 -34 -40 -39
-18 -33 560 147 1059 151 1585 11 l90 -24 -29 22 c-55 41 -75 68 -82 113 -3
24 -4 53 -1 64 4 15 -4 25 -33 41 -48 27 -65 60 -64 119 l2 48 -107 16 c-290
46 -597 56 -860 30z"/>
<path d="M5896 8705 c-33 -34 -14 -90 37 -108 44 -16 86 48 63 94 -15 30 -75
38 -100 14z"/>
<path d="M3550 8287 c-368 -225 -707 -543 -942 -882 -466 -671 -647 -1469
-518 -2273 104 -645 403 -1221 871 -1678 150 -145 200 -187 349 -291 1116
-780 2657 -758 3736 53 282 212 509 463 719 795 353 557 515 1261 444 1929
-64 600 -292 1160 -661 1622 -109 136 -368 393 -498 494 -107 83 -278 200
-362 248 l-48 28 -10 -26 c-5 -15 -21 -43 -35 -64 -23 -34 -25 -45 -25 -153
l0 -116 134 -101 c312 -237 536 -473 721 -762 271 -425 416 -892 432 -1400 11
-354 -38 -676 -153 -998 -51 -142 -190 -431 -257 -535 l-44 -67 -28 77 c-33
94 -65 160 -156 318 -135 237 -152 356 -84 585 20 69 44 150 53 180 24 83 23
287 -2 364 -36 109 -106 178 -180 180 -37 1 -51 -4 -72 -26 -23 -22 -28 -38
-34 -105 -10 -105 -26 -155 -68 -204 -55 -64 -125 -84 -212 -59 -38 11 -50 2
-50 -37 l0 -23 -241 0 c-146 0 -248 -4 -260 -10 -23 -13 -26 -62 -3 -84 13
-14 51 -16 258 -16 223 0 244 2 259 18 10 10 17 23 17 29 0 6 35 9 88 9 100
-1 143 15 202 75 50 51 79 115 100 220 10 49 20 93 24 96 25 25 86 -107 93
-202 8 -97 -7 -172 -69 -356 -52 -153 -52 -155 -52 -279 -1 -116 2 -130 30
-201 17 -42 69 -143 116 -225 47 -82 100 -183 118 -224 65 -153 106 -396 81
-473 -14 -40 -53 -74 -99 -83 -25 -5 -48 7 -155 79 -70 47 -152 95 -184 107
-67 25 -159 50 -185 50 -12 0 -19 11 -24 35 -3 20 -15 40 -25 45 -10 6 -150
10 -339 10 l-321 0 -24 -26 c-23 -25 -24 -25 -59 -9 -47 22 -93 76 -125 145
-19 43 -26 76 -29 147 -5 114 13 200 79 381 27 73 61 172 74 220 45 155 48
343 9 535 -23 113 -1 148 85 135 27 -4 29 -1 35 31 3 20 6 55 6 77 l0 41 -51
7 c-109 15 -187 58 -243 135 -69 96 -97 224 -77 364 12 88 5 113 -34 123 -76
19 -148 -36 -208 -158 -56 -116 -71 -192 -71 -353 0 -160 17 -264 71 -448 86
-295 86 -295 86 -417 0 -132 -17 -197 -102 -397 -113 -269 -148 -389 -157
-553 -16 -259 56 -474 214 -642 123 -130 306 -216 501 -235 l63 -6 -47 -18
c-53 -20 -273 -71 -408 -94 -228 -39 -621 -38 -886 1 -169 25 -398 76 -467
106 l-29 12 30 3 c291 28 537 131 681 284 160 171 235 366 235 614 1 227 -28
317 -198 627 -82 149 -123 262 -130 353 -5 65 -1 82 46 222 68 199 80 291 58
407 -21 105 -50 172 -109 252 -89 119 -239 207 -426 250 -128 29 -146 30 -138
8 3 -9 6 -150 6 -315 l0 -298 29 -15 c42 -22 142 -124 173 -176 79 -136 83
-333 10 -477 -32 -62 -104 -144 -165 -188 l-57 -40 0 -211 0 -211 -179 -6
c-99 -3 -201 -4 -229 0 l-49 5 -7 129 c-3 71 -3 166 0 212 l7 82 -58 39 c-188
130 -266 364 -194 579 36 106 125 220 205 263 l34 19 0 312 c0 172 -1 313 -2
313 -29 0 -184 -35 -242 -54 -301 -101 -480 -373 -437 -662 6 -43 32 -139 58
-214 78 -228 63 -313 -109 -615 -100 -176 -148 -290 -175 -410 l-9 -40 -32 50
c-52 81 -218 421 -257 529 -110 299 -176 720 -161 1021 26 511 156 935 416
1351 217 346 476 615 830 859 l110 77 0 92 0 92 -35 34 c-19 19 -47 51 -61 72
-15 21 -29 38 -33 38 -3 0 -44 -24 -91 -53z m937 -4264 c12 -15 8 -37 -10 -60
-7 -10 -111 -13 -458 -13 -394 0 -449 2 -463 16 -17 17 -20 42 -8 61 6 10 110
13 443 16 238 1 445 1 459 -1 14 -2 30 -10 37 -19z m2101 -215 l-3 -53 -257
-3 -258 -2 0 55 0 55 261 0 260 0 -3 -52z"/>
<path d="M3864 8247 c-3 -8 -3 -56 -2 -108 l3 -94 153 -3 152 -4 0 111 0 111
-150 0 c-116 0 -152 -3 -156 -13z"/>
<path d="M6120 8165 l0 -95 174 0 175 0 3 95 3 95 -177 0 -178 0 0 -95z"/>
<path d="M6120 7910 l0 -90 174 0 173 0 6 53 c4 28 4 69 0 90 l-6 37 -173 0
-174 0 0 -90z"/>
<path d="M3862 7893 l3 -88 153 -3 152 -3 0 91 0 90 -155 0 -156 0 3 -87z"/>
<path d="M4870 7793 c-8 -3 -27 -17 -42 -31 -23 -21 -28 -34 -28 -75 0 -40 5
-53 29 -78 73 -72 205 -1 185 100 -11 56 -93 104 -144 84z"/>
<path d="M5363 7780 c-21 -13 -36 -32 -44 -59 -38 -128 135 -199 196 -81 19
37 19 63 0 100 -17 33 -61 60 -97 60 -13 0 -37 -9 -55 -20z"/>
<path d="M6120 7665 l0 -85 180 0 180 0 0 85 0 85 -180 0 -180 0 0 -85z"/>
<path d="M3867 7733 c-4 -3 -7 -42 -7 -85 l0 -78 154 0 154 0 4 63 c6 115 18
107 -151 107 -81 0 -151 -3 -154 -7z"/>
<path d="M4384 7566 c-36 -56 38 -114 85 -67 12 12 21 30 21 40 0 51 -77 70
-106 27z"/>
<path d="M5837 7572 c-47 -52 28 -126 77 -76 19 18 21 65 4 82 -18 18 -63 14
-81 -6z"/>
<path d="M3860 7420 l0 -90 155 0 155 0 0 90 0 90 -155 0 -155 0 0 -90z"/>
<path d="M6120 7425 l0 -85 180 0 180 0 0 85 0 85 -180 0 -180 0 0 -85z"/>
<path d="M3331 7354 c-28 -35 -26 -69 4 -99 48 -49 135 -15 135 53 0 67 -97
99 -139 46z"/>
<path d="M6830 7360 c-46 -46 -9 -130 56 -130 65 0 103 99 52 134 -31 22 -84
20 -108 -4z"/>
<path d="M5098 7349 c-21 -12 -24 -69 -6 -87 17 -17 64 -15 82 4 49 48 -16
119 -76 83z"/>
<path d="M6127 7273 c-4 -3 -7 -42 -7 -85 l0 -78 180 0 180 0 0 85 0 85 -173
0 c-96 0 -177 -3 -180 -7z"/>
<path d="M3862 7188 l3 -83 153 -3 152 -4 0 86 0 86 -155 0 -156 0 3 -82z"/>
<path d="M5740 7183 c-21 -7 -40 -33 -40 -55 0 -24 35 -58 60 -58 25 0 60 34
60 58 0 37 -44 67 -80 55z"/>
<path d="M4512 7168 c-18 -18 -14 -63 6 -81 38 -34 92 -8 92 44 0 33 -18 49
-55 49 -17 0 -36 -5 -43 -12z"/>
<path d="M3035 7066 c-12 -18 -14 -30 -6 -43 8 -17 191 -103 218 -103 15 0 43
34 43 52 0 8 -8 22 -17 30 -22 18 -186 88 -207 88 -9 0 -23 -11 -31 -24z"/>
<path d="M7101 7055 c-100 -41 -111 -50 -111 -85 0 -54 20 -56 128 -15 104 39
132 58 132 86 0 22 -26 49 -48 49 -9 -1 -55 -16 -101 -35z"/>
<path d="M6120 6971 l0 -78 53 -7 c28 -3 109 -6 180 -6 l127 0 0 85 0 85 -180
0 -180 0 0 -79z"/>
<path d="M3862 6963 l3 -78 153 -3 152 -3 0 81 0 80 -155 0 -156 0 3 -77z"/>
<path d="M5126 6998 c-11 -70 -60 -161 -116 -211 -47 -42 -113 -70 -225 -96
l-40 -9 40 -1 c96 -3 208 -52 261 -113 33 -40 70 -119 80 -173 l7 -40 17 60
c30 107 85 185 161 226 37 19 120 39 168 39 59 0 50 6 -35 24 -95 19 -163 55
-212 112 -38 43 -81 132 -83 172 0 9 -4 26 -8 37 -6 16 -10 10 -15 -27z"/>
<path d="M3860 6745 l0 -75 155 0 155 0 0 75 0 75 -155 0 -155 0 0 -75z"/>
<path d="M6120 6745 l0 -75 180 0 180 0 0 75 0 75 -180 0 -180 0 0 -75z"/>
<path d="M2893 6778 c-23 -30 -23 -49 2 -74 13 -13 31 -24 40 -24 9 0 100 -22
201 -50 101 -27 197 -50 212 -50 34 0 52 16 52 47 0 30 -31 49 -110 67 -36 9
-128 34 -205 56 -151 43 -177 47 -192 28z"/>
<path d="M7280 6774 c-25 -7 -117 -32 -205 -55 -175 -44 -205 -58 -205 -92 0
-57 30 -59 210 -11 74 19 162 42 195 50 123 31 151 54 120 100 -18 28 -47 30
-115 8z"/>
<path d="M3860 6540 l0 -70 155 0 155 0 0 70 0 70 -155 0 -155 0 0 -70z"/>
<path d="M6120 6540 l0 -70 180 0 180 0 0 70 0 70 -180 0 -180 0 0 -70z"/>
<path d="M2731 6431 c-12 -12 -21 -27 -21 -35 0 -20 27 -45 53 -51 94 -20 405
-75 428 -75 38 0 62 33 47 65 -12 27 -24 30 -273 75 -93 17 -180 34 -192 36
-14 4 -29 -2 -42 -15z"/>
<path d="M7479 6445 c-3 -2 -95 -20 -205 -40 -109 -19 -207 -38 -216 -41 -20
-6 -33 -45 -25 -69 12 -29 58 -26 273 14 213 40 254 54 254 88 0 30 -62 67
-81 48z"/>
<path d="M3860 6340 l0 -70 155 0 155 0 0 70 0 70 -155 0 -155 0 0 -70z"/>
<path d="M6120 6340 l0 -70 179 0 c204 0 190 -7 183 93 l-4 47 -179 0 -179 0
0 -70z"/>
<path d="M3862 6143 l3 -68 151 -3 151 -4 7 36 c4 20 4 52 0 71 l-6 35 -155 0
-154 0 3 -67z"/>
<path d="M6120 6140 l0 -70 179 0 178 0 5 38 c3 20 3 52 1 70 l-5 32 -179 0
-179 0 0 -70z"/>
<path d="M3864 6006 c-3 -7 -4 -35 -2 -62 l3 -49 152 -3 151 -3 4 56 c1 30 2
60 0 65 -2 6 -64 10 -153 10 -118 0 -151 -3 -155 -14z"/>
<path d="M6120 5945 l0 -65 185 0 186 0 -3 63 -3 62 -182 3 -183 2 0 -65z"/>
<path d="M7451 5920 c-134 -18 -161 -29 -161 -65 0 -17 23 -43 40 -46 34 -6
277 24 298 37 26 17 29 55 6 78 -18 18 -8 19 -183 -4z"/>
<path d="M2630 5911 c-13 -25 -13 -33 3 -55 10 -14 44 -22 152 -35 79 -10 149
-14 162 -10 44 16 37 83 -10 94 -30 7 -221 25 -263 25 -23 0 -37 -6 -44 -19z"/>
<path d="M3862 5778 l3 -53 153 -3 152 -3 0 56 0 55 -156 0 -155 0 3 -52z"/>
<path d="M6120 5765 l0 -55 183 2 182 3 0 50 0 50 -182 3 -183 2 0 -55z"/>
<path d="M3860 5651 c0 -10 3 -38 6 -62 l6 -44 149 0 149 0 0 63 0 62 -155 0
c-144 0 -155 -1 -155 -19z"/>
<path d="M6120 5612 l0 -49 176 -7 c107 -5 180 -4 186 2 5 5 8 29 6 53 l-3 44
-182 3 -183 2 0 -48z"/>
<path d="M6122 5458 l3 -43 180 0 180 0 3 43 3 42 -186 0 -186 0 3 -42z"/>
<path d="M3944 5371 c-97 -25 -186 -99 -227 -189 -17 -37 -22 -66 -22 -132 0
-75 4 -91 29 -137 54 -99 135 -159 244 -182 94 -20 196 14 282 95 164 153 112
433 -97 526 -48 21 -161 32 -209 19z"/>
<path d="M2662 5324 c-12 -8 -22 -24 -22 -34 0 -38 37 -50 152 -50 95 0 110 2
128 20 11 11 20 25 20 30 0 6 -9 19 -20 30 -18 18 -33 20 -128 20 -81 0 -113
-4 -130 -16z"/>
<path d="M7356 5324 c-22 -21 -20 -61 3 -74 11 -5 69 -10 130 -10 119 0 141 9
141 55 0 37 -28 45 -149 45 -86 0 -113 -3 -125 -16z"/>
<path d="M6057 5092 c-24 -27 -21 -69 8 -97 l24 -25 234 0 c222 0 236 1 261
21 32 25 35 70 6 99 -19 19 -33 20 -268 20 -228 0 -250 -2 -265 -18z"/>
<path d="M2753 4853 c-7 -2 -13 -18 -13 -34 0 -35 27 -49 98 -49 73 0 116 42
80 78 -12 12 -139 16 -165 5z"/>
<path d="M7350 4846 c-19 -24 -8 -59 20 -67 40 -11 107 -10 134 2 31 14 39 34
26 60 -9 16 -22 19 -89 19 -56 0 -82 -4 -91 -14z"/>
<path d="M6060 4658 c-27 -30 -26 -79 3 -106 23 -21 31 -22 264 -22 l242 0 20
26 c27 34 27 78 1 104 -19 19 -33 20 -265 20 -238 0 -245 -1 -265 -22z"/>
<path d="M6060 4270 c-28 -28 -26 -75 5 -105 l24 -25 241 0 c227 0 241 1 260
20 12 12 20 33 20 55 0 22 -8 43 -20 55 -19 19 -33 20 -265 20 -232 0 -246 -1
-265 -20z"/>
<path d="M6796 4189 c-36 -28 -37 -89 -1 -124 62 -62 164 11 130 92 -23 55
-82 69 -129 32z"/>
<path d="M7086 3959 c-20 -16 -26 -29 -26 -59 0 -88 116 -111 150 -30 32 78
-57 142 -124 89z"/>
<path d="M7943 2976 c-128 -31 -244 -145 -279 -273 -23 -87 -15 -241 19 -338
72 -208 198 -370 342 -443 180 -90 424 -16 518 156 80 147 72 330 -24 531
-137 289 -347 422 -576 367z m166 -241 c42 -21 126 -118 167 -191 128 -230
105 -406 -56 -422 -94 -9 -185 72 -265 233 -98 198 -95 312 9 376 37 23 106
25 145 4z"/>
<path d="M2065 2946 c-145 -36 -225 -132 -233 -281 -5 -101 14 -152 102 -279
35 -50 71 -105 80 -123 31 -61 13 -138 -39 -161 -83 -38 -190 16 -270 137 -22
33 -42 61 -46 61 -3 0 -44 -32 -92 -71 -102 -85 -103 -76 17 -194 171 -169
356 -217 521 -136 77 38 127 95 155 175 43 121 21 209 -92 377 -67 98 -82 128
-85 167 -6 57 18 94 73 112 68 23 167 -25 230 -111 20 -27 39 -49 42 -49 4 0
43 34 87 75 l80 74 -80 78 c-92 90 -157 128 -252 148 -81 17 -131 18 -198 1z"/>
<path d="M7303 2593 c-57 -25 -103 -51 -103 -58 0 -7 20 -62 44 -122 62 -155
202 -531 215 -578 35 -127 -20 -215 -134 -215 -115 0 -141 43 -295 490 -56
162 -105 299 -111 304 -5 6 -47 -3 -109 -25 l-101 -34 6 -31 c14 -77 191 -607
227 -684 58 -120 146 -207 241 -238 155 -50 327 -6 432 111 107 118 119 271
38 507 -38 112 -231 601 -242 612 -3 3 -52 -14 -108 -39z"/>
<path d="M2832 2535 c-216 -61 -410 -357 -438 -667 -21 -239 116 -427 340
-469 64 -11 142 -1 209 29 144 64 292 271 351 492 23 84 32 251 17 318 -26
124 -103 220 -216 273 -79 37 -182 47 -263 24z m177 -243 c56 -42 66 -67 66
-165 0 -74 -6 -109 -29 -177 -89 -271 -226 -381 -351 -286 -92 70 -83 239 22
452 85 172 203 243 292 176z"/>
<path d="M3551 2278 c-6 -24 -27 -113 -47 -198 -112 -481 -134 -577 -162 -695
-16 -71 -32 -144 -35 -160 l-6 -31 102 -27 c56 -15 107 -27 114 -27 14 0 25
33 58 175 39 165 95 395 107 440 l11 40 32 -95 c18 -52 77 -223 130 -380 53
-157 99 -287 100 -289 7 -6 215 -35 220 -29 8 8 153 915 171 1070 7 64 16 58
-100 78 -101 17 -114 15 -120 -22 -22 -130 -98 -553 -101 -556 -3 -3 -52 133
-161 448 -41 118 -76 220 -78 225 -3 9 -44 23 -207 71 -12 3 -19 -6 -28 -38z"/>
<path d="M6205 2183 c-67 -10 -339 -64 -342 -67 -6 -5 49 -314 113 -641 89
-454 94 -478 99 -483 7 -8 151 18 270 48 149 37 217 71 291 145 123 123 170
308 130 517 -44 228 -165 392 -336 455 -56 21 -172 34 -225 26z m147 -244 c81
-41 136 -126 168 -261 46 -192 6 -340 -104 -388 -41 -17 -146 -43 -152 -37 -7
6 -145 689 -141 694 2 1 28 7 58 12 66 11 122 5 171 -20z"/>
<path d="M4506 2069 c-17 -101 -102 -1096 -95 -1104 6 -5 230 -28 234 -23 2 2
13 125 24 273 12 149 33 395 46 547 14 153 25 286 25 297 0 20 -1 20 -167 37
l-62 6 -5 -33z"/>
<path d="M5195 2057 c-158 -53 -276 -179 -335 -357 -31 -94 -37 -243 -16 -350
25 -120 67 -201 151 -286 116 -117 257 -172 401 -154 64 8 194 63 194 82 0 6
-19 60 -42 119 l-41 107 -27 -27 c-30 -30 -89 -51 -140 -51 -95 0 -188 68
-236 172 -26 57 -28 73 -28 173 0 140 23 206 98 281 89 90 220 100 303 22 13
-12 24 -20 26 -17 2 2 16 49 32 104 15 55 30 106 32 113 3 7 -21 24 -63 44
-61 29 -80 33 -169 35 -63 2 -115 -2 -140 -10z"/>
</g>
</svg>
